{
  "asset": {
    "generator": "glTF-Transform v4.3.0",
    "version": "2.0",
    "extras": {
      "author": "oxterium (https://sketchfab.com/oxterium)",
      "license": "SKETCHFAB Standard (https://sketchfab.com/licenses)",
      "source": "https://sketchfab.com/3d-models/brain-hologram-09d686a1a1f745cba6b2385d0c831214",
      "title": "Brain hologram"
    }
  },
  "accessors": [
    {
      "type": "SCALAR",
      "componentType": 5123,
      "count": 61131,
      "bufferView": 0,
      "byteOffset": 0
    },
    {
      "type": "SCALAR",
      "componentType": 5123,
      "count": 60999,
      "bufferView": 0,
      "byteOffset": 122264
    },
    {
      "type": "SCALAR",
      "componentType": 5123,
      "count": 54813,
      "bufferView": 0,
      "byteOffset": 244264
    },
    {
      "type": "SCALAR",
      "componentType": 5123,
      "count": 61113,
      "bufferView": 0,
      "byteOffset": 353892
    },
    {
      "type": "SCALAR",
      "componentType": 5123,
      "count": 61086,
      "bufferView": 0,
      "byteOffset": 476120
    },
    {
      "type": "SCALAR",
      "componentType": 5123,
      "count": 54693,
      "bufferView": 0,
      "byteOffset": 598292
    },
    {
      "type": "SCALAR",
      "componentType": 5126,
      "count": 4,
      "max": [
        10
      ],
      "min": [
        0.0416666679084301
      ],
      "bufferView": 1,
      "byteOffset": 0
    },
    {
      "type": "VEC4",
      "componentType": 5126,
      "count": 4,
      "bufferView": 1,
      "byteOffset": 16
    },
    {
      "type": "VEC3",
      "componentType": 5122,
      "count": 25551,
      "normalized": true,
      "bufferView": 2,
      "byteOffset": 0
    },
    {
      "type": "VEC3",
      "componentType": 5122,
      "count": 25551,
      "max": [
        26403,
        32767,
        27963
      ],
      "min": [
        -26403,
        -32767,
        -27963
      ],
      "normalized": true,
      "bufferView": 2,
      "byteOffset": 8
    },
    {
      "type": "VEC3",
      "componentType": 5122,
      "count": 25512,
      "normalized": true,
      "bufferView": 3,
      "byteOffset": 0
    },
    {
      "type": "VEC3",
      "componentType": 5122,
      "count": 25512,
      "max": [
        26355,
        32767,
        27315
      ],
      "min": [
        -26355,
        -32767,
        -27315
      ],
      "normalized": true,
      "bufferView": 3,
      "byteOffset": 8
    },
    {
      "type": "VEC3",
      "componentType": 5122,
      "count": 22928,
      "normalized": true,
      "bufferView": 4,
      "byteOffset": 0
    },
    {
      "type": "VEC3",
      "componentType": 5122,
      "count": 22928,
      "max": [
        26743,
        32767,
        27407
      ],
      "min": [
        -26743,
        -32767,
        -27407
      ],
      "normalized": true,
      "bufferView": 4,
      "byteOffset": 8
    },
    {
      "type": "VEC3",
      "componentType": 5122,
      "count": 25545,
      "normalized": true,
      "bufferView": 5,
      "byteOffset": 0
    },
    {
      "type": "VEC3",
      "componentType": 5122,
      "count": 25545,
      "max": [
        26007,
        32767,
        27519
      ],
      "min": [
        -26007,
        -32767,
        -27519
      ],
      "normalized": true,
      "bufferView": 5,
      "byteOffset": 8
    },
    {
      "type": "VEC3",
      "componentType": 5122,
      "count": 25540,
      "normalized": true,
      "bufferView": 6,
      "byteOffset": 0
    },
    {
      "type": "VEC3",
      "componentType": 5122,
      "count": 25540,
      "max": [
        26255,
        32767,
        26367
      ],
      "min": [
        -26255,
        -32767,
        -26367
      ],
      "normalized": true,
      "bufferView": 6,
      "byteOffset": 8
    },
    {
      "type": "VEC3",
      "componentType": 5122,
      "count": 22888,
      "normalized": true,
      "bufferView": 7,
      "byteOffset": 0
    },
    {
      "type": "VEC3",
      "componentType": 5122,
      "count": 22888,
      "max": [
        26267,
        32767,
        27591
      ],
      "min": [
        -26267,
        -32767,
        -27591
      ],
      "normalized": true,
      "bufferView": 7,
      "byteOffset": 8
    }
  ],
  "bufferViews": [
    {
      "buffer": 0,
      "byteOffset": 0,
      "byteLength": 707680,
      "target": 34963
    },
    {
      "buffer": 0,
      "byteOffset": 707680,
      "byteLength": 80
    },
    {
      "buffer": 0,
      "byteOffset": 707760,
      "byteLength": 408816,
      "byteStride": 16,
      "target": 34962
    },
    {
      "buffer": 0,
      "byteOffset": 1116576,
      "byteLength": 408192,
      "byteStride": 16,
      "target": 34962
    },
    {
      "buffer": 0,
      "byteOffset": 1524768,
      "byteLength": 366848,
      "byteStride": 16,
      "target": 34962
    },
    {
      "buffer": 0,
      "byteOffset": 1891616,
      "byteLength": 408720,
      "byteStride": 16,
      "target": 34962
    },
    {
      "buffer": 0,
      "byteOffset": 2300336,
      "byteLength": 408640,
      "byteStride": 16,
      "target": 34962
    },
    {
      "buffer": 0,
      "byteOffset": 2708976,
      "byteLength": 366208,
      "byteStride": 16,
      "target": 34962
    }
  ],
  "buffers": [
    {
      "uri": "scene.bin",
      "byteLength": 3075184
    }
  ],
  "materials": [
    {
      "name": "Particle_2",
      "doubleSided": true,
      "pbrMetallicRoughness": {
        "baseColorFactor": [
          0,
          0,
          0,
          1
        ],
        "roughnessFactor": 0.8211145618000169,
        "metallicFactor": 0
      },
      "emissiveFactor": [
        1,
        0,
        0.7501209999999996
      ],
      "extensions": {
        "KHR_materials_emissive_strength": {
          "emissiveStrength": 10
        }
      }
    },
    {
      "name": "Particle_1",
      "doubleSided": true,
      "pbrMetallicRoughness": {
        "baseColorFactor": [
          0,
          0,
          0,
          1
        ],
        "roughnessFactor": 0.8211145618000169,
        "metallicFactor": 0
      },
      "emissiveFactor": [
        0,
        0.898708,
        1
      ],
      "extensions": {
        "KHR_materials_emissive_strength": {
          "emissiveStrength": 10
        }
      }
    }
  ],
  "meshes": [
    {
      "name": "Icosphere.001_Particle_2_0",
      "primitives": [
        {
          "attributes": {
            "NORMAL": 8,
            "POSITION": 9
          },
          "mode": 4,
          "material": 0,
          "indices": 0
        }
      ]
    },
    {
      "name": "Icosphere.001_Particle_2_0",
      "primitives": [
        {
          "attributes": {
            "NORMAL": 10,
            "POSITION": 11
          },
          "mode": 4,
          "material": 0,
          "indices": 1
        }
      ]
    },
    {
      "name": "Icosphere.001_Particle_2_0",
      "primitives": [
        {
          "attributes": {
            "NORMAL": 12,
            "POSITION": 13
          },
          "mode": 4,
          "material": 0,
          "indices": 2
        }
      ]
    },
    {
      "name": "Icosphere.001_Particle_1_0",
      "primitives": [
        {
          "attributes": {
            "NORMAL": 14,
            "POSITION": 15
          },
          "mode": 4,
          "material": 1,
          "indices": 3
        }
      ]
    },
    {
      "name": "Icosphere.001_Particle_1_0",
      "primitives": [
        {
          "attributes": {
            "NORMAL": 16,
            "POSITION": 17
          },
          "mode": 4,
          "material": 1,
          "indices": 4
        }
      ]
    },
    {
      "name": "Icosphere.001_Particle_1_0",
      "primitives": [
        {
          "attributes": {
            "NORMAL": 18,
            "POSITION": 19
          },
          "mode": 4,
          "material": 1,
          "indices": 5
        }
      ]
    }
  ],
  "nodes": [
    {
      "name": "Sketchfab_model",
      "rotation": [
        -0.7071067811865475,
        0,
        0,
        0.7071067811865476
      ],
      "children": [
        1
      ]
    },
    {
      "name": "07e8ba9162674e488df6dd56fc54b2e3.fbx",
      "rotation": [
        0.7071067811865475,
        0,
        0,
        0.7071067811865476
      ],
      "scale": [
        0.009999999776482582,
        0.009999999776482582,
        0.009999999776482582
      ],
      "children": [
        2
      ]
    },
    {
      "name": "Object_2",
      "children": [
        3
      ]
    },
    {
      "name": "RootNode",
      "children": [
        4
      ]
    },
    {
      "name": "Icosphere.001",
      "rotation": [
        0.14307375252246857,
        0.6924809813499451,
        0.6924809813499451,
        -0.14307375252246857
      ],
      "scale": [
        99.99999237060547,
        99.99999237060547,
        100
      ],
      "children": [
        5,
        6,
        7,
        8,
        9,
        10
      ]
    },
    {
      "name": "Icosphere.001_Particle_2_0",
      "translation": [
        0.014792263507843018,
        0.02465847134590149,
        0.07052001357078552
      ],
      "scale": [
        0.6443064510822296,
        0.6443064510822296,
        0.6443064510822296
      ],
      "mesh": 0
    },
    {
      "name": "Icosphere.001_Particle_2_0",
      "translation": [
        0.012956559658050537,
        0.019431740045547485,
        0.07559555768966675
      ],
      "scale": [
        0.6512362062931061,
        0.6512362062931061,
        0.6512362062931061
      ],
      "mesh": 1
    },
    {
      "name": "Icosphere.001_Particle_2_0",
      "translation": [
        0.015002191066741943,
        0.02677866816520691,
        0.08453369140625
      ],
      "scale": [
        0.6391567885875702,
        0.6391567885875702,
        0.6391567885875702
      ],
      "mesh": 2
    },
    {
      "name": "Icosphere.001_Particle_1_0",
      "translation": [
        0.016530752182006836,
        0.020224303007125854,
        0.06858420372009277
      ],
      "scale": [
        0.651505321264267,
        0.651505321264267,
        0.651505321264267
      ],
      "mesh": 3
    },
    {
      "name": "Icosphere.001_Particle_1_0",
      "translation": [
        0.012390464544296265,
        0.018036961555480957,
        0.09007370471954346
      ],
      "scale": [
        0.6517212390899658,
        0.6517212390899658,
        0.6517212390899658
      ],
      "mesh": 4
    },
    {
      "name": "Icosphere.001_Particle_1_0",
      "translation": [
        0.01165720820426941,
        0.02155435085296631,
        0.06990218162536621
      ],
      "scale": [
        0.6513839960098267,
        0.6513839960098267,
        0.6513839960098267
      ],
      "mesh": 5
    }
  ],
  "animations": [
    {
      "name": "Scene",
      "samplers": [
        {
          "input": 6,
          "output": 7,
          "interpolation": "LINEAR"
        }
      ],
      "channels": [
        {
          "sampler": 0,
          "target": {
            "node": 4,
            "path": "rotation"
          }
        }
      ]
    }
  ],
  "scenes": [
    {
      "name": "Rad_Menu_Scene",
      "nodes": [
        0
      ]
    }
  ],
  "scene": 0,
  "extensionsUsed": [
    "KHR_materials_emissive_strength",
    "KHR_mesh_quantization"
  ],
  "extensionsRequired": [
    "KHR_mesh_quantization"
  ]
}
